# xmcd CD database file generated by Grip 3.2.0
# 
# Track frame offsets:
#       150
#       31213
#       50928
#       66320
#       107730
#       132175
#       147918
#       198005
#       216763
#       226560
# 
# Disc length: 3276 seconds
# 
# Revision: 4
# Processed by: cddbd v1.5.2PL0 Copyright (c) Steve Scherf et al.
# Submitted via: Grip 3.2.0
# 
DISCID=8c0cca0a
DTITLE=Bloomfield, Kooper and Stills - Super Session (Collector's Edition)
DYEAR=1995
DGENRE=Blues
TTITLE0=Albert's Shuffle
TTITLE1=Stop
TTITLE2=Man's Temptation
TTITLE3=His Holy Modal Majesty
TTITLE4=Really
TTITLE5=It Takes a Lot to Laugh, It Takes a Train to Cry
TTITLE6=Season of the Witch
TTITLE7=You Don't Love Me
TTITLE8=Harvey's Tune
TTITLE9=Blues for Nothing
EXTD=
EXTT0=
EXTT1=
EXTT2=
EXTT3=
EXTT4=
EXTT5=
EXTT6=
EXTT7=
EXTT8=
EXTT9=
PLAYORDER=
